<mxfile host="app.diagrams.net" modified="2024-02-26T13:37:00.279Z" agent="Mozilla/5.0 (Windows NT 10.0; Win64; x64) AppleWebKit/537.36 (KHTML, like Gecko) Chrome/121.0.0.0 Safari/537.36" etag="WAQmkMbAOKxG1VX_L4LF" version="23.1.5" type="device">
  <diagram name="Página-1" id="RxvWo-xCnOMPOsgaxRQ4">
    <mxGraphModel dx="880" dy="460" grid="1" gridSize="10" guides="1" tooltips="1" connect="1" arrows="1" fold="1" page="1" pageScale="1" pageWidth="827" pageHeight="1169" math="0" shadow="0">
      <root>
        <mxCell id="0" />
        <mxCell id="1" parent="0" />
        <mxCell id="yk_jgLQ6ELrIeZ4AxoTR-1" value="Usuários" style="swimlane;fontStyle=0;childLayout=stackLayout;horizontal=1;startSize=30;horizontalStack=0;resizeParent=1;resizeParentMax=0;resizeLast=0;collapsible=1;marginBottom=0;whiteSpace=wrap;html=1;" vertex="1" parent="1">
          <mxGeometry x="50" y="130" width="140" height="140" as="geometry" />
        </mxCell>
        <mxCell id="yk_jgLQ6ELrIeZ4AxoTR-2" value="cod_usuário(PK)" style="text;strokeColor=none;fillColor=none;align=left;verticalAlign=middle;spacingLeft=4;spacingRight=4;overflow=hidden;points=[[0,0.5],[1,0.5]];portConstraint=eastwest;rotatable=0;whiteSpace=wrap;html=1;" vertex="1" parent="yk_jgLQ6ELrIeZ4AxoTR-1">
          <mxGeometry y="30" width="140" height="30" as="geometry" />
        </mxCell>
        <mxCell id="yk_jgLQ6ELrIeZ4AxoTR-3" value="nm_usuário" style="text;strokeColor=none;fillColor=none;align=left;verticalAlign=middle;spacingLeft=4;spacingRight=4;overflow=hidden;points=[[0,0.5],[1,0.5]];portConstraint=eastwest;rotatable=0;whiteSpace=wrap;html=1;" vertex="1" parent="yk_jgLQ6ELrIeZ4AxoTR-1">
          <mxGeometry y="60" width="140" height="30" as="geometry" />
        </mxCell>
        <mxCell id="yk_jgLQ6ELrIeZ4AxoTR-4" value="email" style="text;strokeColor=none;fillColor=none;align=left;verticalAlign=middle;spacingLeft=4;spacingRight=4;overflow=hidden;points=[[0,0.5],[1,0.5]];portConstraint=eastwest;rotatable=0;whiteSpace=wrap;html=1;" vertex="1" parent="yk_jgLQ6ELrIeZ4AxoTR-1">
          <mxGeometry y="90" width="140" height="30" as="geometry" />
        </mxCell>
        <mxCell id="yk_jgLQ6ELrIeZ4AxoTR-5" value="senha_usuário" style="text;whiteSpace=wrap;html=1;" vertex="1" parent="yk_jgLQ6ELrIeZ4AxoTR-1">
          <mxGeometry y="120" width="140" height="20" as="geometry" />
        </mxCell>
        <mxCell id="yk_jgLQ6ELrIeZ4AxoTR-43" style="edgeStyle=orthogonalEdgeStyle;rounded=0;orthogonalLoop=1;jettySize=auto;html=1;entryX=1;entryY=0;entryDx=0;entryDy=0;" edge="1" parent="1" source="yk_jgLQ6ELrIeZ4AxoTR-6" target="yk_jgLQ6ELrIeZ4AxoTR-41">
          <mxGeometry relative="1" as="geometry">
            <Array as="points">
              <mxPoint x="550" y="75" />
              <mxPoint x="550" y="250" />
            </Array>
          </mxGeometry>
        </mxCell>
        <mxCell id="yk_jgLQ6ELrIeZ4AxoTR-47" value="N" style="edgeLabel;html=1;align=center;verticalAlign=middle;resizable=0;points=[];" vertex="1" connectable="0" parent="yk_jgLQ6ELrIeZ4AxoTR-43">
          <mxGeometry x="0.8667" y="-1" relative="1" as="geometry">
            <mxPoint x="-15" y="-9" as="offset" />
          </mxGeometry>
        </mxCell>
        <mxCell id="yk_jgLQ6ELrIeZ4AxoTR-49" value="1" style="edgeLabel;html=1;align=center;verticalAlign=middle;resizable=0;points=[];" vertex="1" connectable="0" parent="yk_jgLQ6ELrIeZ4AxoTR-43">
          <mxGeometry x="-0.8613" y="2" relative="1" as="geometry">
            <mxPoint x="-16" y="-13" as="offset" />
          </mxGeometry>
        </mxCell>
        <mxCell id="yk_jgLQ6ELrIeZ4AxoTR-6" value="Habilidades" style="swimlane;fontStyle=0;childLayout=stackLayout;horizontal=1;startSize=30;horizontalStack=0;resizeParent=1;resizeParentMax=0;resizeLast=0;collapsible=1;marginBottom=0;whiteSpace=wrap;html=1;" vertex="1" parent="1">
          <mxGeometry x="310" y="30" width="140" height="90" as="geometry" />
        </mxCell>
        <mxCell id="yk_jgLQ6ELrIeZ4AxoTR-7" value="id_habilidade(PK)" style="text;strokeColor=none;fillColor=none;align=left;verticalAlign=middle;spacingLeft=4;spacingRight=4;overflow=hidden;points=[[0,0.5],[1,0.5]];portConstraint=eastwest;rotatable=0;whiteSpace=wrap;html=1;" vertex="1" parent="yk_jgLQ6ELrIeZ4AxoTR-6">
          <mxGeometry y="30" width="140" height="30" as="geometry" />
        </mxCell>
        <mxCell id="yk_jgLQ6ELrIeZ4AxoTR-8" value="nome_habilidade" style="text;strokeColor=none;fillColor=none;align=left;verticalAlign=middle;spacingLeft=4;spacingRight=4;overflow=hidden;points=[[0,0.5],[1,0.5]];portConstraint=eastwest;rotatable=0;whiteSpace=wrap;html=1;" vertex="1" parent="yk_jgLQ6ELrIeZ4AxoTR-6">
          <mxGeometry y="60" width="140" height="30" as="geometry" />
        </mxCell>
        <mxCell id="yk_jgLQ6ELrIeZ4AxoTR-10" value="Personagens" style="swimlane;fontStyle=0;childLayout=stackLayout;horizontal=1;startSize=30;horizontalStack=0;resizeParent=1;resizeParentMax=0;resizeLast=0;collapsible=1;marginBottom=0;whiteSpace=wrap;html=1;" vertex="1" parent="1">
          <mxGeometry x="50" y="360" width="140" height="150" as="geometry" />
        </mxCell>
        <mxCell id="yk_jgLQ6ELrIeZ4AxoTR-11" value="id_personagem(PK)" style="text;strokeColor=none;fillColor=none;align=left;verticalAlign=middle;spacingLeft=4;spacingRight=4;overflow=hidden;points=[[0,0.5],[1,0.5]];portConstraint=eastwest;rotatable=0;whiteSpace=wrap;html=1;" vertex="1" parent="yk_jgLQ6ELrIeZ4AxoTR-10">
          <mxGeometry y="30" width="140" height="30" as="geometry" />
        </mxCell>
        <mxCell id="yk_jgLQ6ELrIeZ4AxoTR-12" value="nome_personagem" style="text;strokeColor=none;fillColor=none;align=left;verticalAlign=middle;spacingLeft=4;spacingRight=4;overflow=hidden;points=[[0,0.5],[1,0.5]];portConstraint=eastwest;rotatable=0;whiteSpace=wrap;html=1;" vertex="1" parent="yk_jgLQ6ELrIeZ4AxoTR-10">
          <mxGeometry y="60" width="140" height="30" as="geometry" />
        </mxCell>
        <mxCell id="yk_jgLQ6ELrIeZ4AxoTR-23" value="cod_usuário(FK)" style="text;whiteSpace=wrap;html=1;" vertex="1" parent="yk_jgLQ6ELrIeZ4AxoTR-10">
          <mxGeometry y="90" width="140" height="30" as="geometry" />
        </mxCell>
        <mxCell id="yk_jgLQ6ELrIeZ4AxoTR-30" value="&lt;span style=&quot;color: rgb(0, 0, 0); font-family: Helvetica; font-size: 12px; font-style: normal; font-variant-ligatures: normal; font-variant-caps: normal; font-weight: 400; letter-spacing: normal; orphans: 2; text-align: left; text-indent: 0px; text-transform: none; widows: 2; word-spacing: 0px; -webkit-text-stroke-width: 0px; background-color: rgb(251, 251, 251); text-decoration-thickness: initial; text-decoration-style: initial; text-decoration-color: initial; float: none; display: inline !important;&quot;&gt;id_classe(FK)&lt;/span&gt;" style="text;whiteSpace=wrap;html=1;" vertex="1" parent="yk_jgLQ6ELrIeZ4AxoTR-10">
          <mxGeometry y="120" width="140" height="30" as="geometry" />
        </mxCell>
        <mxCell id="yk_jgLQ6ELrIeZ4AxoTR-14" value="Classe" style="swimlane;fontStyle=0;childLayout=stackLayout;horizontal=1;startSize=30;horizontalStack=0;resizeParent=1;resizeParentMax=0;resizeLast=0;collapsible=1;marginBottom=0;whiteSpace=wrap;html=1;" vertex="1" parent="1">
          <mxGeometry x="310" y="350" width="140" height="120" as="geometry" />
        </mxCell>
        <mxCell id="yk_jgLQ6ELrIeZ4AxoTR-31" value="" style="edgeStyle=entityRelationEdgeStyle;fontSize=12;html=1;endArrow=ERmandOne;startArrow=ERmandOne;rounded=0;entryX=0.014;entryY=0.267;entryDx=0;entryDy=0;entryPerimeter=0;" edge="1" parent="yk_jgLQ6ELrIeZ4AxoTR-14" source="yk_jgLQ6ELrIeZ4AxoTR-30">
          <mxGeometry width="100" height="100" relative="1" as="geometry">
            <mxPoint x="-111.96000000000001" y="146.99" as="sourcePoint" />
            <mxPoint x="5.684341886080802e-14" y="50" as="targetPoint" />
            <Array as="points">
              <mxPoint x="-51.96000000000001" y="161.99" />
            </Array>
          </mxGeometry>
        </mxCell>
        <mxCell id="yk_jgLQ6ELrIeZ4AxoTR-32" value="1" style="edgeLabel;html=1;align=center;verticalAlign=middle;resizable=0;points=[];" vertex="1" connectable="0" parent="yk_jgLQ6ELrIeZ4AxoTR-31">
          <mxGeometry x="-0.719" y="-1" relative="1" as="geometry">
            <mxPoint x="-14" y="14" as="offset" />
          </mxGeometry>
        </mxCell>
        <mxCell id="yk_jgLQ6ELrIeZ4AxoTR-33" value="N" style="edgeLabel;html=1;align=center;verticalAlign=middle;resizable=0;points=[];" vertex="1" connectable="0" parent="yk_jgLQ6ELrIeZ4AxoTR-31">
          <mxGeometry x="0.7616" y="1" relative="1" as="geometry">
            <mxPoint x="31" y="-7" as="offset" />
          </mxGeometry>
        </mxCell>
        <mxCell id="yk_jgLQ6ELrIeZ4AxoTR-35" value="N" style="edgeLabel;html=1;align=center;verticalAlign=middle;resizable=0;points=[];" vertex="1" connectable="0" parent="yk_jgLQ6ELrIeZ4AxoTR-31">
          <mxGeometry x="0.8956" y="-2" relative="1" as="geometry">
            <mxPoint y="-12" as="offset" />
          </mxGeometry>
        </mxCell>
        <mxCell id="yk_jgLQ6ELrIeZ4AxoTR-15" value="id_classe(PK)" style="text;strokeColor=none;fillColor=none;align=left;verticalAlign=middle;spacingLeft=4;spacingRight=4;overflow=hidden;points=[[0,0.5],[1,0.5]];portConstraint=eastwest;rotatable=0;whiteSpace=wrap;html=1;" vertex="1" parent="yk_jgLQ6ELrIeZ4AxoTR-14">
          <mxGeometry y="30" width="140" height="30" as="geometry" />
        </mxCell>
        <mxCell id="yk_jgLQ6ELrIeZ4AxoTR-16" value="nome_classe" style="text;strokeColor=none;fillColor=none;align=left;verticalAlign=middle;spacingLeft=4;spacingRight=4;overflow=hidden;points=[[0,0.5],[1,0.5]];portConstraint=eastwest;rotatable=0;whiteSpace=wrap;html=1;" vertex="1" parent="yk_jgLQ6ELrIeZ4AxoTR-14">
          <mxGeometry y="60" width="140" height="30" as="geometry" />
        </mxCell>
        <mxCell id="yk_jgLQ6ELrIeZ4AxoTR-17" value="descrição_classe" style="text;strokeColor=none;fillColor=none;align=left;verticalAlign=middle;spacingLeft=4;spacingRight=4;overflow=hidden;points=[[0,0.5],[1,0.5]];portConstraint=eastwest;rotatable=0;whiteSpace=wrap;html=1;" vertex="1" parent="yk_jgLQ6ELrIeZ4AxoTR-14">
          <mxGeometry y="90" width="140" height="30" as="geometry" />
        </mxCell>
        <mxCell id="yk_jgLQ6ELrIeZ4AxoTR-27" value="" style="edgeStyle=entityRelationEdgeStyle;fontSize=12;html=1;endArrow=ERmandOne;startArrow=ERmandOne;rounded=0;exitX=1;exitY=0.5;exitDx=0;exitDy=0;" edge="1" parent="1" source="yk_jgLQ6ELrIeZ4AxoTR-11">
          <mxGeometry width="100" height="100" relative="1" as="geometry">
            <mxPoint x="-50" y="270" as="sourcePoint" />
            <mxPoint x="50" y="170" as="targetPoint" />
            <Array as="points">
              <mxPoint x="-110" y="180" />
              <mxPoint x="30" y="340" />
            </Array>
          </mxGeometry>
        </mxCell>
        <mxCell id="yk_jgLQ6ELrIeZ4AxoTR-28" value="1" style="edgeLabel;html=1;align=center;verticalAlign=middle;resizable=0;points=[];" vertex="1" connectable="0" parent="yk_jgLQ6ELrIeZ4AxoTR-27">
          <mxGeometry x="-0.596" y="-1" relative="1" as="geometry">
            <mxPoint x="9" as="offset" />
          </mxGeometry>
        </mxCell>
        <mxCell id="yk_jgLQ6ELrIeZ4AxoTR-29" value="!1" style="edgeLabel;html=1;align=center;verticalAlign=middle;resizable=0;points=[];" vertex="1" connectable="0" parent="yk_jgLQ6ELrIeZ4AxoTR-27">
          <mxGeometry x="0.7818" y="-1" relative="1" as="geometry">
            <mxPoint x="-11" y="-4" as="offset" />
          </mxGeometry>
        </mxCell>
        <mxCell id="yk_jgLQ6ELrIeZ4AxoTR-36" value="ClassesHabilidades" style="swimlane;fontStyle=0;childLayout=stackLayout;horizontal=1;startSize=30;horizontalStack=0;resizeParent=1;resizeParentMax=0;resizeLast=0;collapsible=1;marginBottom=0;whiteSpace=wrap;html=1;" vertex="1" parent="1">
          <mxGeometry x="310" y="180" width="140" height="110" as="geometry" />
        </mxCell>
        <mxCell id="yk_jgLQ6ELrIeZ4AxoTR-40" value="&lt;span style=&quot;color: rgb(0, 0, 0); font-family: Helvetica; font-size: 12px; font-style: normal; font-variant-ligatures: normal; font-variant-caps: normal; font-weight: 400; letter-spacing: normal; orphans: 2; text-align: left; text-indent: 0px; text-transform: none; widows: 2; word-spacing: 0px; -webkit-text-stroke-width: 0px; background-color: rgb(251, 251, 251); text-decoration-thickness: initial; text-decoration-style: initial; text-decoration-color: initial; float: none; display: inline !important;&quot;&gt;id_habilidade(FK)&lt;/span&gt;" style="text;whiteSpace=wrap;html=1;" vertex="1" parent="yk_jgLQ6ELrIeZ4AxoTR-36">
          <mxGeometry y="30" width="140" height="40" as="geometry" />
        </mxCell>
        <mxCell id="yk_jgLQ6ELrIeZ4AxoTR-41" value="&lt;span style=&quot;color: rgb(0, 0, 0); font-family: Helvetica; font-size: 12px; font-style: normal; font-variant-ligatures: normal; font-variant-caps: normal; font-weight: 400; letter-spacing: normal; orphans: 2; text-align: left; text-indent: 0px; text-transform: none; widows: 2; word-spacing: 0px; -webkit-text-stroke-width: 0px; background-color: rgb(251, 251, 251); text-decoration-thickness: initial; text-decoration-style: initial; text-decoration-color: initial; float: none; display: inline !important;&quot;&gt;id_classe(FK)&lt;/span&gt;" style="text;whiteSpace=wrap;html=1;" vertex="1" parent="yk_jgLQ6ELrIeZ4AxoTR-36">
          <mxGeometry y="70" width="140" height="40" as="geometry" />
        </mxCell>
        <mxCell id="yk_jgLQ6ELrIeZ4AxoTR-44" style="edgeStyle=orthogonalEdgeStyle;rounded=0;orthogonalLoop=1;jettySize=auto;html=1;exitX=1;exitY=0.5;exitDx=0;exitDy=0;entryX=1;entryY=0.5;entryDx=0;entryDy=0;" edge="1" parent="1" source="yk_jgLQ6ELrIeZ4AxoTR-16" target="yk_jgLQ6ELrIeZ4AxoTR-41">
          <mxGeometry relative="1" as="geometry">
            <Array as="points">
              <mxPoint x="550" y="425" />
              <mxPoint x="550" y="270" />
            </Array>
          </mxGeometry>
        </mxCell>
        <mxCell id="yk_jgLQ6ELrIeZ4AxoTR-46" value="N" style="edgeLabel;html=1;align=center;verticalAlign=middle;resizable=0;points=[];" vertex="1" connectable="0" parent="yk_jgLQ6ELrIeZ4AxoTR-44">
          <mxGeometry x="0.8986" y="-1" relative="1" as="geometry">
            <mxPoint y="11" as="offset" />
          </mxGeometry>
        </mxCell>
        <mxCell id="yk_jgLQ6ELrIeZ4AxoTR-50" value="1" style="edgeLabel;html=1;align=center;verticalAlign=middle;resizable=0;points=[];" vertex="1" connectable="0" parent="yk_jgLQ6ELrIeZ4AxoTR-44">
          <mxGeometry x="-0.9042" y="-2" relative="1" as="geometry">
            <mxPoint x="-7" y="-17" as="offset" />
          </mxGeometry>
        </mxCell>
      </root>
    </mxGraphModel>
  </diagram>
</mxfile>
